<!DOCTYPE svg PUBLIC "-//W3C//DTD SVG 1.1//EN" "http://www.w3.org/Graphics/SVG/1.1/DTD/svg11.dtd">
<!-- Uploaded to: SVG Repo, www.svgrepo.com, Transformed by: SVG Repo Mixer Tools -->
<svg height="800px" width="800px" version="1.1" id="Layer_1" xmlns="http://www.w3.org/2000/svg" xmlns:xlink="http://www.w3.org/1999/xlink" viewBox="0 0 474.081 474.081" xml:space="preserve" fill="#000000">
<g id="SVGRepo_bgCarrier" stroke-width="0"/>
<g id="SVGRepo_tracerCarrier" stroke-linecap="round" stroke-linejoin="round"/>
<g id="SVGRepo_iconCarrier"> <circle style="fill:#353636;" cx="237.04" cy="236.967" r="236.967"/> <path style="fill:#F5F3E2;" d="M236.891,474.081c100.781,0,186.813-62.944,221.076-151.636 c-61.87-37.294-142.323-54.993-230.285-54.993c-80.886,0-155.415,14.975-214.996,46.383 C44.582,407.043,132.88,474.081,236.891,474.081z"/> <path style="fill:#F5F6F7;" d="M233.19,187.052c0,0,98.098-22.526,137.417,14.339l-17.201,99.12c0,0-43.289,19.038-111.341-9.325 S233.19,187.052,233.19,187.052z"/> <path style="fill:#EFEFEF;" d="M233.19,187.052c0,0,98.098-22.526,137.417,14.339l-7.091,40.864c0,0-157.533-0.498-147.569-24.883 C223.009,200.096,233.19,187.052,233.19,187.052z"/> <path style="fill:#DCDCDB;" d="M169.299,226.371c10.125,3.042,0.614,73.111-4.299,95.846c-4.913,22.728-12.898,25.182-12.898,25.182 l-31.947-3.682c-7.989-3.689,7.375-11.671,7.375-11.671c13.512-6.754,12.284-77.414,9.212-92.156 C136.738,239.89,157.015,222.689,169.299,226.371z"/> <path style="fill:#E7E6E6;" d="M233.19,187.052c-36.857-3.686-86.619-22.114-86.619-22.114s-17.845,26.125-38.091,28.254 c-23.345,2.462-45.092-8.808-57.747-10.75c-4.067-0.621-4.202,5.474-2.855,8.928c2.125,5.448,30.492,11.042,58.147,20.872 c11.832,10.297,28.58,32.31,32.965,34.08c17.901,9.325,66.514,35.614,69.014,47.633c3.068,14.739,3.068,43.001-10.44,49.762 c0,0-15.364,7.981-7.379,11.671l31.947,3.682c0,0,7.989-2.455,12.902-25.182c2.814-13.036,6.234-29.695,7.027-42.701 C286.447,303.938,233.19,187.052,233.19,187.052z"/> <path style="fill:#717272;" d="M50.119,163.711c0,0-9.332,2.728-3.394,11.73C46.726,175.441,55.818,171.396,50.119,163.711z"/> <path style="fill:#F5F6F7;" d="M176.06,174.614c0,0-62.465-29.268-86.012-25.033c-23.547,4.228-39.929,14.129-39.929,14.129 s2.148,5.224-3.394,11.73c0,0-4.183,21.856,39.641,18.582C86.362,194.023,131.41,208.35,176.06,174.614z"/> <path style="fill:#666866;" d="M90.834,159.954c-0.034,1.489-2.447,2.952-4.322,2.911c-1.878-0.03-4.614-1.048-4.587-2.552 c0.03-1.493,2.814-2.896,4.688-2.866C88.491,157.484,90.864,158.457,90.834,159.954z"/> <path style="fill:#ECEBE9;" d="M350.637,199.404c22.739-4.202,40.606,13.384,44.134,30.653c0,0,2.455,50.376-4.913,67.58 c0,0-3.686,57.751-1.227,66.349c0,0-28.875,9.216-41.163,9.216c0,0-3.068-15.36,14.129-23.955c0,0-17.661-12.228-30.439-31.73 c-8.273-12.629-14.496-28.299-12.565-45.683C318.593,271.833,323.704,204.376,350.637,199.404z"/> </g>
</svg>